<?xml version="1.0" standalone="no"?>
<!DOCTYPE svg PUBLIC "-//W3C//DTD SVG 20010904//EN"
 "http://www.w3.org/TR/2001/REC-SVG-20010904/DTD/svg10.dtd">
<svg version="1.0" xmlns="http://www.w3.org/2000/svg"
 width="724.000000pt" height="1042.000000pt" viewBox="0 0 724.000000 1042.000000"
 preserveAspectRatio="xMidYMid meet">

<g transform="translate(0.000000,1042.000000) scale(0.100000,-0.100000)"
fill="#000000" stroke="none">
<path d="M88 10399 c-23 -12 -46 -35 -58 -59 -20 -39 -20 -50 -20 -5130 0
-4979 0 -5092 19 -5128 11 -22 35 -46 59 -60 l40 -22 3513 0 3514 0 40 23 40
23 3 5161 2 5161 -37 24 -38 23 -757 3 -758 2 0 -30 c0 -49 -38 -80 -102 -81
-99 -3 -200 2 -224 11 -24 9 -54 57 -54 85 0 13 -22 15 -154 15 -168 0 -166 1
-166 -61 0 -18 -9 -39 -24 -54 -19 -19 -31 -22 -63 -18 -28 4 -42 1 -52 -10
-11 -14 -7 -17 27 -28 28 -8 45 -8 59 0 14 7 31 7 54 1 19 -6 62 -10 96 -10
75 0 93 -6 93 -33 0 -11 16 -36 36 -55 32 -31 38 -33 46 -19 21 38 72 47 268
47 174 0 189 -1 214 -21 37 -29 35 -70 -5 -103 -25 -21 -30 -32 -26 -53 6 -32
-15 -52 -55 -53 -15 0 -32 -8 -38 -17 -8 -13 -13 -14 -16 -5 -3 6 -17 12 -30
12 -13 0 -34 6 -45 13 -17 10 -23 10 -26 0 -6 -18 -68 -16 -83 2 -14 17 -30
11 -30 -11 0 -21 -40 -53 -67 -54 -12 0 -24 -4 -28 -9 -5 -9 -45 -11 -45 -3 0
11 45 42 61 42 10 0 20 4 23 9 3 5 15 7 26 4 11 -3 20 0 20 6 0 18 -29 25 -45
11 -8 -7 -15 -10 -15 -6 0 3 -25 -6 -57 -19 -31 -14 -88 -30 -127 -36 -39 -5
-82 -14 -95 -20 -32 -13 -35 -7 -13 32 26 48 56 61 124 55 53 -5 59 -4 98 29
l42 35 -25 11 c-20 9 -30 8 -50 -6 -22 -14 -48 -16 -184 -12 -238 7 -286 23
-295 97 -3 25 -16 32 -81 45 -21 4 -29 13 -33 35 -8 40 -54 59 -98 40 -17 -7
-48 -14 -70 -14 -56 -1 -76 29 -83 127 l-6 77 -2101 0 c-2072 -1 -2102 -1
-2138 -21z m5878 -234 c20 -30 12 -71 -16 -80 -30 -10 -39 2 -33 43 9 71 21
80 49 37z m-2293 -180 c44 -38 55 -67 47 -117 -3 -26 -3 -54 2 -63 11 -18 5
-209 -6 -242 -6 -16 -4 -23 5 -23 7 0 29 -11 49 -25 32 -22 47 -25 179 -30
134 -5 238 -22 285 -47 17 -9 15 -14 -30 -54 -26 -24 -54 -44 -60 -44 -8 0
-13 -37 -16 -122 -4 -109 -8 -132 -36 -202 -28 -71 -78 -163 -136 -253 -24
-37 -60 -53 -96 -42 -14 4 -49 7 -78 8 -71 1 -106 21 -126 71 -14 36 -16 109
-14 668 1 345 3 607 5 582 3 -31 11 -51 26 -65z m-1683 -4 c-1 -10 -6 -7 -15
9 -19 33 -18 50 0 26 8 -11 15 -27 15 -35z m2510 -1 c0 -8 7 -23 14 -33 9 -11
11 -33 8 -65 -7 -64 -8 -117 -2 -247 l5 -110 -34 -3 c-19 -2 -45 -1 -59 3
l-25 6 5 138 c3 76 9 144 13 152 8 11 12 46 18 145 1 17 8 38 16 48 13 15 15
15 27 -1 7 -10 14 -25 14 -33z m-2479 -129 c0 -78 -22 -161 -53 -200 -10 -13
-16 -27 -13 -30 4 -3 9 -1 13 5 4 6 15 10 24 9 10 -2 20 5 23 16 4 10 11 19
17 19 6 0 5 -7 -3 -17 -12 -15 -12 -16 4 -10 14 5 17 1 17 -22 0 -16 7 -34 15
-41 10 -8 12 -17 5 -30 -6 -10 -5 -21 1 -27 6 -6 3 -16 -7 -29 -8 -10 -13 -13
-9 -6 3 6 2 12 -4 12 -6 0 -9 -20 -8 -45 1 -25 5 -45 9 -45 4 0 29 -55 28 -64
0 -1 -26 -2 -57 -3 -35 -2 -84 -14 -131 -33 -41 -16 -83 -30 -93 -30 -10 0
-24 -9 -32 -20 -9 -13 -20 -18 -31 -14 -26 10 -19 -20 8 -32 18 -8 31 -8 54 2
25 10 30 10 26 0 -4 -10 2 -12 22 -8 23 4 26 2 21 -12 -6 -14 -3 -16 14 -11
11 4 26 1 34 -5 18 -15 69 -4 59 12 -4 7 -3 8 4 4 12 -7 61 22 62 37 0 9 40
49 40 40 0 -4 7 2 15 13 11 15 17 16 23 6 5 -7 15 -12 23 -10 11 2 13 -8 10
-47 -1 -27 -6 -54 -9 -60 -4 -5 -7 -15 -8 -20 -1 -6 -11 -32 -23 -57 -11 -26
-18 -55 -15 -65 5 -15 4 -16 -5 -3 -13 18 -12 20 -17 -50 -5 -82 -11 -100 -31
-93 -15 6 -16 5 -3 -9 8 -9 19 -14 23 -11 5 3 4 -4 -3 -16 -13 -25 -34 -36
-50 -26 -9 5 -9 10 -1 18 16 16 13 30 -5 23 -8 -3 -12 -2 -9 3 9 16 -15 24
-30 11 -9 -7 -28 -10 -47 -6 -72 13 -81 16 -85 20 -3 2 -17 0 -33 -4 -23 -7
-28 -5 -23 6 3 8 19 14 39 14 22 0 37 6 41 16 8 22 -10 97 -25 102 -11 3 -10
-3 2 -26 22 -43 20 -69 -6 -75 -12 -4 -26 -1 -30 6 -4 6 -9 9 -11 7 -2 -3 -14
-20 -26 -37 -27 -39 -49 -41 -89 -8 -33 28 -51 71 -26 61 11 -4 14 -1 10 12
-9 26 -18 131 -16 180 1 37 -4 49 -30 74 -18 16 -29 33 -25 36 3 4 10 0 15 -8
5 -8 12 -12 15 -8 7 7 -22 38 -36 38 -5 0 -8 -6 -7 -12 4 -16 -85 -11 -91 4
-2 7 -5 7 -10 0 -3 -6 -18 -8 -33 -5 -19 4 -25 10 -21 22 5 13 3 14 -8 4 -16
-15 -33 -17 -24 -3 3 6 1 10 -4 10 -6 0 -11 4 -11 9 0 5 11 8 25 5 14 -2 25 0
25 6 0 7 9 9 23 5 22 -7 22 -7 -2 10 -18 14 -20 19 -10 26 10 6 7 11 -11 18
l-25 10 25 2 c14 1 28 1 33 0 15 -2 6 20 -15 38 -13 11 -36 31 -53 45 l-30 26
32 0 c24 0 33 5 39 23 6 20 8 20 13 3 6 -16 10 -13 31 17 13 20 28 33 33 30 5
-3 5 -8 1 -12 -5 -3 -15 -16 -22 -28 -13 -24 -4 -31 16 -11 8 8 15 8 25 -1 12
-9 16 -8 21 5 3 9 3 21 -1 26 -3 6 -1 8 4 5 6 -4 16 0 23 8 11 14 14 13 25 -2
7 -10 14 -25 16 -34 3 -12 10 -14 37 -7 27 7 32 13 31 36 -1 17 -3 20 -6 10
-2 -10 -9 -18 -15 -18 -6 0 -7 7 -3 18 4 9 10 25 12 34 3 10 9 15 14 12 16
-10 29 6 16 20 -6 8 -16 12 -20 9 -6 -4 -5 37 2 66 1 2 7 -2 15 -8 11 -10 14
-9 12 1 -4 30 -34 22 -41 -11 -2 -12 -10 -30 -16 -38 -11 -12 -14 -11 -25 8
-9 18 -9 29 2 54 7 18 11 35 9 39 -3 3 0 2 5 -2 7 -6 7 -19 -1 -40 -6 -17 -9
-37 -6 -44 3 -9 7 -7 11 5 3 9 9 25 13 35 3 9 5 24 4 32 -1 11 1 12 6 3 7 -10
20 -11 53 -3 3 0 -6 8 -20 16 -14 8 -17 13 -7 10 9 -3 17 -1 17 4 0 6 -4 10
-10 10 -5 0 -7 7 -4 15 4 8 10 15 15 15 4 0 6 -7 3 -15 -4 -11 -2 -13 9 -10 8
4 17 -1 21 -11 5 -14 4 -15 -9 -4 -23 19 -20 -11 5 -37 15 -17 16 -22 5 -27
-8 -3 -16 2 -18 12 -2 9 -3 7 -2 -6 1 -14 -5 -27 -17 -33 -15 -8 -17 -13 -7
-25 13 -16 34 -20 24 -4 -8 13 26 50 45 50 13 0 16 -8 13 -32 -3 -31 -2 -31
10 6 7 22 19 41 27 43 9 3 11 1 5 -4 -5 -4 -12 -17 -13 -27 -3 -17 -2 -18 12
-7 9 8 16 20 16 27 0 8 5 14 10 14 15 0 12 -28 -3 -37 -8 -4 -16 -18 -19 -31
-4 -12 -2 -20 2 -17 5 3 11 -3 14 -12 3 -10 4 -7 3 8 -1 14 6 33 15 43 10 9
14 24 11 33 -4 10 -2 14 4 10 6 -4 9 -27 8 -52 -2 -25 -1 -45 1 -45 3 0 20 14
40 32 22 20 32 37 29 47 -3 9 -3 12 1 8 25 -25 63 154 45 217 -5 19 -6 37 -3
41 13 12 24 -42 23 -114z m2083 98 c21 -22 36 -101 30 -156 -8 -73 -13 -141
-16 -210 -3 -67 -15 -88 -42 -77 -15 6 -17 15 -12 53 4 31 1 55 -8 73 -18 34
-24 64 -36 168 -5 47 -12 101 -16 122 -5 30 -3 37 13 40 34 7 74 1 87 -13z
m-2374 1 c0 -5 -5 -10 -11 -10 -5 0 -7 5 -4 10 3 6 8 10 11 10 2 0 4 -4 4 -10z
m157 -22 c-3 -8 -6 -5 -6 6 -1 11 2 17 5 13 3 -3 4 -12 1 -19z m2898 2 c3 -5
19 -10 36 -10 16 0 29 5 29 10 0 15 46 12 60 -5 17 -20 4 -35 -31 -35 -18 0
-29 -5 -29 -14 0 -19 -95 -46 -135 -40 -67 11 -75 15 -75 33 0 10 9 30 21 45
17 22 28 26 69 26 27 0 52 -4 55 -10z m-3171 -45 c-8 -13 -12 -30 -8 -36 4 -8
3 -9 -4 -5 -17 10 -15 26 5 48 23 25 26 22 7 -7z m111 15 c-3 -5 -11 -10 -16
-10 -6 0 -7 5 -4 10 3 6 11 10 16 10 6 0 7 -4 4 -10z m192 -12 c-3 -8 -6 -5
-6 6 -1 11 2 17 5 13 3 -3 4 -12 1 -19z m-234 -27 c-8 -14 -9 -21 0 -30 6 -6
8 -14 4 -17 -7 -7 -47 33 -47 45 0 3 5 13 11 21 9 12 10 10 6 -8 -4 -19 -3
-21 8 -12 8 6 11 19 8 28 -5 14 -4 15 8 4 10 -10 11 -17 2 -31z m71 21 c-7 -4
-14 -16 -17 -27 -4 -15 -5 -14 -6 8 -1 20 4 27 17 27 11 0 13 -3 6 -8z m82 -8
c-3 -9 -6 -18 -6 -20 0 -2 -5 -4 -11 -4 -8 0 -9 4 0 13 6 8 8 17 4 20 -3 4 -1
7 6 7 8 0 11 -6 7 -16z m3967 9 c-7 -2 -19 -2 -25 0 -7 3 -2 5 12 5 14 0 19
-2 13 -5z m-3993 -7 c0 -3 -4 -8 -10 -11 -5 -3 -10 -1 -10 4 0 6 5 11 10 11 6
0 10 -2 10 -4z m-34 -59 c1 -12 -2 -29 -7 -37 -6 -11 -8 -5 -9 18 0 24 -4 31
-12 26 -9 -5 -8 -2 1 9 16 20 24 16 27 -16z m67 18 c-3 -9 -8 -14 -10 -11 -3
3 -2 9 2 15 9 16 15 13 8 -4z m77 -4 c14 -27 13 -34 -4 -19 -8 7 -12 18 -9 23
3 6 -5 -1 -16 -15 -22 -27 -28 -21 -11 11 6 10 15 19 20 19 5 0 14 -9 20 -19z
m-359 -18 c-12 -20 -14 -14 -5 12 4 9 9 14 11 11 3 -2 0 -13 -6 -23z m26 5
c-3 -8 -6 -5 -6 6 -1 11 2 17 5 13 3 -3 4 -12 1 -19z m35 0 c-7 -7 -12 -8 -12
-2 0 14 12 26 19 19 2 -3 -1 -11 -7 -17z m15 -16 c-10 -10 -17 -29 -17 -41 0
-12 -4 -20 -10 -16 -14 9 19 75 38 75 3 0 -2 -8 -11 -18z m173 1 c0 -5 -10
-19 -21 -33 l-21 -25 18 33 c18 32 24 38 24 25z m-213 -25 c-3 -8 -6 -5 -6 6
-1 11 2 17 5 13 3 -3 4 -12 1 -19z m79 6 c-3 -9 -6 -18 -6 -20 0 -2 -4 -4 -9
-4 -5 0 -7 9 -4 20 3 11 10 20 15 20 6 0 7 -7 4 -16z m-132 -10 c3 -8 2 -12
-4 -9 -6 3 -10 10 -10 16 0 14 7 11 14 -7z m326 6 c0 -5 -4 -10 -10 -10 -5 0
-10 5 -10 10 0 6 5 10 10 10 6 0 10 -4 10 -10z m-9 -34 c5 3 9 1 9 -5 0 -5 -9
-9 -19 -8 -12 1 -17 6 -13 16 4 10 7 11 10 3 2 -7 8 -10 13 -6z m-55 -8 c4 -7
3 -8 -4 -4 -7 4 -12 2 -12 -5 0 -7 -3 -10 -6 -6 -6 5 3 27 11 27 2 0 7 -5 11
-12z m-225 -25 c-12 -20 -14 -14 -5 12 4 9 9 14 11 11 3 -2 0 -13 -6 -23z
m4397 -10 c4 -41 -24 -46 -38 -7 -15 38 -12 46 13 42 17 -2 23 -11 25 -35z
m-4461 -5 c-3 -7 -5 -2 -5 12 0 14 2 19 5 13 2 -7 2 -19 0 -25z m96 7 c-3 -8
-9 -15 -14 -15 -5 0 -9 -5 -9 -11 0 -5 5 -7 12 -3 7 4 8 3 4 -5 -4 -6 0 -18 8
-27 20 -19 20 -38 2 -53 -12 -10 -13 -8 -9 8 3 12 3 28 -1 37 -5 14 -7 14 -22
-1 -9 -9 -19 -13 -23 -10 -3 4 2 11 12 16 9 6 17 15 17 20 0 6 -4 7 -10 4 -16
-10 -12 11 5 25 8 7 15 19 15 27 0 8 4 12 10 8 5 -3 7 -12 3 -20z m298 -40
c-4 -15 -7 -12 -11 15 -4 19 -4 39 -1 45 8 15 18 -37 12 -60z m-361 40 c0 -8
-4 -15 -10 -15 -5 0 -7 7 -4 15 4 8 8 15 10 15 2 0 4 -7 4 -15z m3544 -27 c50
-4 100 -15 113 -23 12 -8 33 -15 46 -15 36 0 47 -19 47 -84 0 -65 -17 -110
-51 -134 -20 -14 -20 -14 10 -41 17 -15 31 -31 31 -34 0 -10 -67 -8 -120 3
-25 6 -70 13 -100 16 -35 4 -63 13 -77 26 -27 25 -79 26 -102 2 -12 -12 -13
-18 -3 -21 16 -6 15 -23 -2 -59 -16 -34 -10 -117 8 -111 6 2 12 12 14 23 7 43
12 48 27 28 15 -19 15 -19 30 0 8 10 16 24 19 30 8 18 36 -25 36 -55 0 -23 5
-28 33 -32 17 -2 56 -14 85 -25 l53 -21 46 24 c25 14 49 23 53 20 12 -7 -1
-58 -21 -84 -11 -13 -19 -29 -19 -35 0 -7 -19 -22 -42 -34 l-43 -21 -23 22
c-13 12 -30 34 -38 50 -8 15 -21 27 -30 27 -8 0 -25 11 -38 25 l-24 25 -5 -27
c-3 -18 0 -31 9 -36 8 -4 14 -17 14 -27 0 -17 -7 -20 -55 -20 -42 0 -55 -3
-55 -15 0 -8 5 -15 11 -15 7 0 9 -12 5 -34 -5 -28 -3 -37 13 -45 11 -6 29 -11
40 -11 11 0 23 -5 27 -12 5 -8 -2 -9 -26 -4 -23 4 -41 1 -57 -9 -13 -9 -28
-13 -33 -10 -6 3 -10 35 -10 70 0 35 -5 76 -12 90 -9 19 -9 28 0 37 16 16 15
48 0 48 -13 0 -67 60 -85 95 -6 11 -18 54 -27 95 -15 76 -32 100 -70 100 -41
0 -74 58 -44 76 26 16 94 16 108 0 7 -9 24 -16 39 -16 20 0 23 -2 11 -10 -13
-9 -13 -11 0 -19 8 -5 18 -7 22 -5 5 3 12 -5 16 -17 5 -12 11 -18 14 -13 32
53 50 92 58 128 5 24 19 64 30 91 16 38 24 46 38 40 9 -5 57 -12 106 -17z
m-3432 -60 c-7 -7 -12 -20 -12 -30 0 -10 -5 -18 -10 -18 -6 0 -8 12 -4 28 11
52 14 56 26 44 9 -9 9 -15 0 -24z m643 -27 c5 -9 -91 -151 -103 -151 -2 0 -2
21 2 47 5 36 14 55 41 80 36 34 50 40 60 24z m-878 -23 c-3 -8 -6 -5 -6 6 -1
11 2 17 5 13 3 -3 4 -12 1 -19z m906 -122 c-13 -118 -50 -209 -85 -204 -36 5
-33 33 7 56 19 12 35 27 35 34 0 8 -5 6 -11 -4 -5 -10 -17 -18 -25 -18 -12 0
-14 7 -9 30 9 40 -2 38 -13 -2 -9 -32 -9 -32 -17 21 -4 32 -3 56 2 60 6 3 18
22 28 41 33 66 39 68 52 14 l12 -49 -2 45 c-1 25 -6 48 -12 52 -5 4 -1 15 10
28 31 34 39 3 28 -104z m4387 103 c24 -7 44 -22 56 -43 18 -29 19 -55 19 -363
0 -321 -1 -332 -21 -360 -33 -45 -100 -44 -130 2 -8 13 -27 57 -40 96 -26 77
-25 65 -28 462 l-1 159 33 29 c35 32 55 35 112 18z m-5080 -9 c0 -5 -4 -10
-10 -10 -5 0 -10 5 -10 10 0 6 5 10 10 10 6 0 10 -4 10 -10z m350 -254 c0 -2
-7 -7 -16 -10 -8 -3 -12 -2 -9 4 6 10 25 14 25 6z m-27 -33 c-13 -2 -33 -2
-45 0 -13 2 -3 4 22 4 25 0 35 -2 23 -4z m1 -45 c-3 -4 -23 -8 -45 -8 -22 0
-38 3 -35 8 2 4 22 7 44 7 23 1 38 -3 36 -7z m-441 -5 c-7 -2 -21 -2 -30 0
-10 3 -4 5 12 5 17 0 24 -2 18 -5z m4232 -42 c5 -23 4 -31 -4 -27 -6 4 -11 13
-11 21 0 8 -8 19 -17 24 -16 9 -16 12 -3 20 19 13 26 5 35 -38z m-4199 24 c-3
-9 0 -15 9 -15 7 0 17 -9 20 -21 5 -14 13 -19 26 -16 16 4 17 2 8 -14 -5 -11
-7 -24 -4 -30 4 -5 1 -17 -6 -25 -16 -19 -20 -44 -11 -58 4 -6 7 -33 7 -60 0
-44 3 -51 23 -55 23 -6 22 -6 -8 -24 -19 -12 -38 -16 -48 -11 -9 4 -22 8 -29
10 -29 6 -62 40 -57 58 4 12 2 16 -5 12 -7 -4 -11 1 -11 13 0 12 -4 21 -10 21
-5 0 -10 9 -10 20 0 11 -4 20 -10 20 -5 0 -7 6 -4 14 3 9 -3 17 -15 21 -19 6
-23 12 -20 31 0 4 -4 10 -9 13 -14 9 -27 81 -14 81 5 0 17 -11 26 -24 14 -22
22 -25 75 -23 34 1 66 8 73 15 7 8 9 13 3 12 -26 -5 -85 1 -85 9 0 4 11 6 24
4 16 -3 30 2 43 15 22 25 27 26 19 7z m51 -17 c-3 -8 -6 -5 -6 6 -1 11 2 17 5
13 3 -3 4 -12 1 -19z m4071 -30 c7 -7 12 -19 12 -27 0 -14 -141 -154 -148
-146 -7 6 20 49 55 88 18 21 36 51 40 67 6 32 21 38 41 18z m-549 -112 c7 -8
11 -27 9 -43 -3 -24 -8 -28 -37 -31 -49 -5 -55 9 -24 51 32 41 36 43 52 23z
m531 -26 c0 -13 -7 -20 -20 -20 -23 0 -26 10 -8 28 18 18 28 15 28 -8z m-4037
-70 c3 -11 1 -18 -4 -14 -5 3 -9 12 -9 20 0 20 7 17 13 -6z m1317 -60 c0 -11
-7 -20 -15 -20 -8 0 -15 9 -15 20 0 11 7 20 15 20 8 0 15 -9 15 -20z m2085 -2
c34 -15 32 -28 -5 -28 -19 0 -33 7 -40 20 -13 24 4 27 45 8z m-77 -29 c20 -15
34 -19 63 -14 21 4 40 2 43 -4 9 -14 -4 -20 -57 -23 -26 -2 -47 -6 -47 -10 0
-5 9 -35 21 -69 12 -33 18 -63 15 -66 -12 -12 -33 18 -46 67 -8 28 -18 53 -22
56 -9 6 -11 84 -2 84 3 0 18 -9 32 -21z m-3023 -59 c0 -8 -9 -16 -20 -18 -32
-5 -64 -24 -70 -42 -4 -12 -16 -16 -48 -14 -49 1 -87 12 -87 25 0 8 29 13 51
11 4 -1 22 3 40 9 19 5 52 12 74 15 22 3 44 10 49 14 12 11 -120 3 -143 -9
-10 -6 -21 -8 -24 -5 -8 8 -70 7 -96 -1 -12 -4 -21 -2 -21 4 0 6 15 11 33 12
17 1 43 4 57 9 14 4 66 7 115 6 72 -1 90 -4 90 -16z m-54 -71 c-30 -26 -90
-42 -77 -20 3 5 14 7 24 4 11 -2 29 8 47 26 17 16 32 27 35 25 2 -3 -11 -18
-29 -35z m359 -34 c-6 -8 -9 -18 -6 -23 5 -8 -8 -35 -70 -143 -6 -10 -14 -16
-19 -11 -4 4 -5 -2 -2 -13 4 -11 0 -31 -8 -45 -12 -22 -14 -23 -20 -8 -7 16
-9 16 -25 -5 -29 -38 -42 -67 -29 -67 6 0 13 9 16 20 3 11 9 20 15 20 16 0
-13 -42 -33 -47 -28 -8 -128 -168 -121 -194 3 -11 2 -11 -7 1 -9 12 -11 9 -11
-15 -1 -26 -2 -28 -11 -12 -8 14 -8 22 0 30 6 6 11 24 11 39 0 15 4 28 10 28
5 0 7 -8 4 -17 -4 -10 3 -3 15 15 12 18 21 37 21 42 0 6 5 10 10 10 6 0 10 5
10 11 0 5 -5 7 -10 4 -7 -4 -9 2 -4 19 4 17 2 26 -6 26 -6 0 -8 -5 -4 -12 4
-7 3 -8 -4 -4 -6 4 -9 13 -6 21 4 8 -1 18 -10 21 -9 3 -13 10 -10 15 3 5 0 9
-5 9 -6 0 -12 -6 -12 -12 -1 -7 -2 -17 -4 -23 -1 -5 -3 -15 -3 -21 -3 -16 -52
-12 -52 4 0 6 -7 12 -15 12 -8 0 -15 8 -14 18 0 10 3 12 6 5 2 -7 11 -13 19
-13 8 0 14 -4 14 -8 0 -4 9 -8 20 -9 11 -1 20 2 20 8 0 5 -8 9 -17 9 -17 1
-17 2 0 14 12 9 14 16 7 21 -5 3 -7 11 -4 17 4 6 3 8 -3 5 -5 -3 -10 0 -10 8
0 18 9 19 25 3 9 -9 12 -9 12 3 0 7 11 -6 24 -31 14 -29 30 -46 44 -48 19 -3
20 -6 11 -24 -6 -11 -8 -22 -6 -25 7 -6 46 70 57 109 7 21 5 26 -6 21 -8 -3
-12 -9 -9 -13 3 -4 0 -22 -6 -40 -9 -23 -14 -29 -23 -20 -8 8 -7 13 3 19 9 6
10 11 2 15 -6 4 -11 3 -11 -2 0 -6 -9 -8 -19 -5 -17 4 -21 11 -30 48 -1 5 3
11 10 14 6 2 9 0 7 -5 -3 -5 -2 -18 3 -29 l8 -20 0 20 c1 17 3 17 11 5 8 -13
10 -12 10 3 0 9 -5 17 -12 17 -6 0 -8 3 -4 7 4 5 15 -1 23 -12 15 -20 15 -20
11 1 -4 15 -1 21 10 20 8 0 17 5 19 12 4 9 -1 10 -22 2 -14 -5 -57 -13 -95
-16 -43 -4 -67 -11 -63 -17 3 -6 2 -8 -3 -5 -5 3 -39 9 -76 12 -50 5 -68 3
-71 -6 -2 -7 -3 -5 -2 5 2 11 -3 17 -17 17 -10 0 -28 5 -39 10 -15 8 -19 7
-19 -5 0 -8 5 -14 11 -13 6 2 13 -3 14 -10 2 -7 1 -8 -2 -2 -10 21 -21 -2 -13
-28 5 -15 14 -47 20 -71 8 -32 14 -40 20 -31 5 8 5 19 -1 26 -7 8 -6 15 2 19
8 6 8 9 -1 15 -8 5 -5 9 9 13 22 5 29 -7 11 -18 -17 -11 -11 -37 10 -42 11 -3
20 -10 20 -15 0 -5 -9 -7 -19 -3 -13 4 -25 -2 -39 -20 -27 -34 -31 -32 -25 15
5 33 3 40 -11 40 -9 0 -16 7 -16 16 0 9 5 12 13 8 9 -5 9 -4 0 6 -13 14 -34 5
-32 -13 3 -25 -1 -47 -9 -47 -4 0 -6 18 -4 40 3 31 8 40 23 40 16 0 18 5 14
27 -2 16 -9 29 -14 31 -6 2 -8 9 -5 17 3 7 1 29 -4 49 -12 42 -8 44 38 13 48
-33 82 -40 170 -38 87 2 275 28 218 30 -38 1 -51 17 -23 27 8 4 12 10 9 15 -3
5 1 6 9 3 8 -3 18 6 25 21 7 15 20 25 34 26 13 0 18 3 11 5 -7 3 -9 12 -6 20
4 12 8 12 20 -3 8 -10 12 -12 8 -5 -5 10 10 15 41 11 4 0 15 13 25 30 10 17
26 31 34 31 8 0 16 8 16 18 1 11 3 9 6 -6 3 -13 -1 -29 -7 -37z m-100 -15 c0
-5 -4 -10 -10 -10 -5 0 -10 5 -10 10 0 6 5 10 10 10 6 0 10 -4 10 -10z m3664
-26 c26 -27 33 -44 18 -44 -9 0 -44 36 -56 58 -12 21 10 13 38 -14z m-4274 3
c0 -2 -10 -12 -21 -23 -22 -19 -22 -19 -10 4 10 18 31 31 31 19z m36 -49 c-9
-5 -22 -7 -29 -4 -7 2 -4 5 6 5 9 1 17 6 17 12 0 5 5 7 11 3 8 -5 6 -10 -5
-16z m3514 7 c16 -19 5 -157 -15 -194 -16 -30 -16 -30 -20 84 -1 39 -5 82 -10
98 -6 23 -4 27 13 27 11 0 25 -7 32 -15z m421 -42 c-9 -16 -10 -16 -11 4 0 12
3 30 7 40 7 16 8 16 11 -4 2 -12 -1 -30 -7 -40z m-3917 12 c8 -21 -3 -43 -25
-50 -10 -4 -19 -11 -19 -16 0 -6 9 -5 23 1 21 11 22 11 2 -5 -22 -18 -26 -36
-10 -47 14 -11 35 -10 35 2 0 5 -7 7 -15 4 -10 -4 -15 0 -15 11 0 10 5 13 12
9 6 -4 17 1 24 10 10 15 12 13 11 -18 -1 -28 -5 -35 -24 -39 -14 -2 -29 3 -39
14 -10 11 -14 19 -9 19 4 0 3 6 -3 13 -7 8 -7 18 -2 27 5 9 5 19 -1 26 -7 9
-4 14 10 19 12 3 21 13 21 21 0 19 16 18 24 -1z m-44 -5 c-8 -5 -19 -10 -25
-10 -5 0 -3 5 5 10 8 5 20 10 25 10 6 0 3 -5 -5 -10z m2209 -27 c22 -14 23
-20 18 -75 -5 -51 -3 -60 15 -71 29 -18 48 -72 48 -140 0 -46 5 -66 19 -81 11
-12 26 -46 33 -76 11 -41 21 -59 41 -70 24 -13 30 -13 55 0 22 13 28 24 32 65
9 78 29 104 99 125 14 4 35 11 46 15 15 6 13 0 -11 -26 -102 -111 -195 -275
-339 -604 -53 -120 -105 -231 -114 -245 -10 -14 -23 -38 -29 -55 -8 -22 -11
66 -11 343 -1 395 -1 392 45 357 29 -22 91 -19 104 4 15 30 12 49 -9 56 -26 8
-46 67 -32 94 17 30 13 40 -16 47 -16 4 -43 15 -60 26 l-33 20 0 160 0 160 38
-7 c20 -3 48 -13 61 -22z m851 -9 c-30 -14 -66 -32 -80 -40 -14 -8 -57 -30
-97 -50 -50 -25 -91 -56 -138 -105 -37 -38 -70 -67 -73 -65 -7 7 82 111 116
135 47 33 286 151 307 151 11 0 -5 -12 -35 -26z m881 -37 c-8 -8 -11 -7 -11 4
0 9 3 19 7 23 4 4 9 2 11 -4 3 -7 -1 -17 -7 -23z m-11 -28 c0 -23 -85 -127
-95 -117 -2 2 9 19 26 38 16 19 35 47 42 63 12 27 27 36 27 16z m-3933 -51 c2
-18 0 -20 -7 -8 -9 13 -11 13 -20 0 -8 -13 -10 -13 -10 2 0 14 11 24 30 27 3
1 7 -9 7 -21z m66 -1 c-3 -4 -11 -6 -18 -3 -7 2 -19 -1 -26 -7 -11 -10 -11 -9
0 5 12 17 54 22 44 5z m274 -3 c14 -13 14 -17 2 -25 -21 -13 -27 -11 -25 9 0
9 -5 16 -11 15 -7 -2 -13 2 -13 7 0 15 30 12 47 -6z m243 -9 c0 -8 -4 -16 -9
-19 -5 -3 -8 5 -8 19 0 14 3 22 8 19 5 -3 9 -11 9 -19z m-303 -5 c-1 -13 -6
-19 -15 -15 -14 5 -32 -32 -25 -52 8 -20 22 -15 16 6 -3 10 0 22 6 25 12 8 16
-36 4 -48 -5 -4 -8 -13 -8 -18 0 -6 -5 -13 -12 -15 -8 -3 -11 3 -8 16 2 11 -1
23 -6 27 -5 3 -8 21 -7 40 2 28 6 34 25 34 13 0 23 5 23 10 0 6 2 10 4 10 3 0
4 -9 3 -20z m-677 6 c0 -2 -9 -6 -20 -9 -11 -3 -18 -1 -14 4 5 9 34 13 34 5z
m602 -18 c-7 -7 -12 -8 -12 -2 0 14 12 26 19 19 2 -3 -1 -11 -7 -17z m-195
-13 c-8 -6 -17 -19 -20 -30 -3 -12 -5 -8 -4 10 1 23 6 31 20 31 15 0 16 -2 4
-11z m-38 -42 c-1 -41 -2 -44 -8 -18 -7 28 -4 65 5 65 2 0 3 -21 3 -47z m212
14 c-10 -9 -11 -8 -5 6 3 10 9 15 12 12 3 -3 0 -11 -7 -18z m213 -25 c-4 -18
-10 -29 -14 -27 -5 3 -3 18 3 35 14 37 19 33 11 -8z m-378 -16 c0 -24 -4 -42
-8 -40 -7 5 -8 64 -1 77 8 14 10 6 9 -37z m27 -41 c0 -58 3 -75 14 -75 11 0
12 -9 7 -37 -9 -49 -17 -58 -12 -14 1 19 -2 36 -8 38 -7 2 -10 -6 -9 -22 2
-14 -1 -25 -6 -25 -5 0 -9 15 -9 34 0 19 -5 38 -12 42 -7 4 -8 3 -4 -4 5 -8 2
-10 -8 -6 -9 3 -16 2 -16 -4 0 -5 7 -12 15 -16 17 -6 21 -56 5 -56 -6 0 -8 11
-4 25 5 21 3 24 -11 19 -14 -6 -16 -1 -15 27 2 19 -1 42 -5 51 -4 11 -1 24 10
34 12 13 16 14 15 3 -6 -42 1 -67 18 -65 14 2 18 15 20 71 4 90 14 76 15 -20z
m482 75 c3 -5 1 -10 -4 -10 -6 0 -11 5 -11 10 0 6 2 10 4 10 3 0 8 -4 11 -10z
m-207 -57 c-6 -7 -8 -18 -5 -25 3 -8 6 -5 6 6 1 26 14 12 17 -19 2 -19 -2 -25
-14 -23 -13 2 -18 -6 -20 -30 -3 -30 -1 -32 22 -28 35 6 41 -19 15 -63 -13
-22 -17 -37 -10 -39 6 -2 12 -11 12 -20 1 -9 5 -3 9 13 7 27 8 28 8 5 0 -14
-3 -34 -8 -45 -8 -18 -9 -18 -9 -2 -1 10 -6 15 -12 12 -6 -4 -9 0 -7 8 2 9 -1
15 -7 14 -5 -1 -9 -8 -7 -17 2 -9 0 -11 -5 -5 -4 6 -14 10 -20 11 -42 3 -44 5
-38 23 4 13 0 20 -13 23 -16 4 -18 1 -14 -16 3 -11 9 -27 15 -33 7 -9 5 -13
-6 -13 -10 0 -18 14 -22 40 -4 22 -10 40 -14 40 -6 0 -7 11 -3 83 1 15 6 27
10 27 5 0 7 -25 5 -56 -2 -36 0 -53 7 -49 5 3 10 21 11 38 0 18 3 25 6 17 2
-8 7 -22 9 -30 5 -13 6 -13 15 0 9 13 10 13 6 0 -2 -8 -10 -14 -16 -12 -6 1
-11 -5 -11 -13 0 -18 11 -19 33 -2 11 8 17 31 19 70 2 31 5 57 8 57 3 0 7 12
9 28 8 76 10 83 20 57 5 -11 4 -25 -1 -32z m32 38 c0 -6 -4 -13 -10 -16 -5 -3
-10 1 -10 9 0 9 5 16 10 16 6 0 10 -4 10 -9z m-131 -33 c0 -31 -1 -31 -10 -10
-5 13 -7 28 -3 33 10 16 14 9 13 -23z m3591 29 c0 -1 -28 -29 -62 -62 -34 -33
-55 -51 -47 -40 21 29 109 112 109 102z m-3743 -44 c-3 -10 -5 -4 -5 12 0 17
2 24 5 18 2 -7 2 -21 0 -30z m467 3 c-3 -14 -10 -26 -15 -26 -4 0 -3 14 3 31
12 36 22 33 12 -5z m-257 -44 c-14 -47 -27 -64 -27 -36 -1 19 -1 19 -15 0 -15
-20 -15 -20 -15 0 0 10 5 26 10 34 9 13 11 13 20 0 8 -12 10 -9 11 13 1 15 3
32 4 37 1 6 3 13 4 18 1 4 6 0 11 -9 6 -10 4 -31 -3 -57z m-87 48 c0 -5 -7
-10 -15 -10 -8 0 -15 -7 -15 -16 0 -8 5 -12 10 -9 6 3 10 1 10 -4 0 -6 -7 -11
-15 -11 -8 0 -15 4 -15 9 0 5 -3 16 -6 24 -4 11 2 17 18 20 13 2 24 5 26 6 1
0 2 -3 2 -9z m175 -1 c-9 -13 27 -8 37 6 5 6 8 5 8 -2 0 -7 -9 -17 -20 -23
-11 -6 -20 -8 -20 -4 0 3 -8 0 -17 -7 -12 -10 -15 -11 -9 -1 4 7 2 19 -4 27
-10 12 -9 15 9 15 13 0 19 -4 16 -11z m133 -92 c-8 -12 -21 -46 -28 -74 -8
-29 -17 -53 -22 -53 -4 0 -3 12 2 26 11 27 5 48 -11 39 -5 -4 -9 -1 -9 4 0 6
6 11 14 11 19 0 25 10 30 52 3 18 8 47 12 63 l8 30 9 -38 c7 -28 5 -43 -5 -60z
m4686 60 c19 -25 19 -30 5 -110 -12 -70 -12 -94 -2 -147 7 -35 11 -65 10 -67
-10 -10 -66 117 -65 147 1 19 -2 62 -6 95 -8 64 5 120 26 113 6 -2 21 -16 32
-31z m-4934 19 c0 -3 -4 -8 -10 -11 -5 -3 -10 -1 -10 4 0 6 5 11 10 11 6 0 10
-2 10 -4z m-120 -16 c0 -5 -5 -10 -11 -10 -5 0 -7 5 -4 10 3 6 8 10 11 10 2 0
4 -4 4 -10z m-34 -26 c-3 -9 -6 -20 -6 -25 0 -5 -5 -9 -11 -9 -6 0 -9 7 -5 15
3 8 0 15 -7 15 -8 0 -6 4 3 10 22 14 33 12 26 -6z m121 10 c-3 -3 -12 -4 -19
-1 -8 3 -5 6 6 6 11 1 17 -2 13 -5z m208 -61 c-9 -15 -14 -20 -11 -10 4 11 9
31 13 45 5 19 8 22 11 10 2 -9 -4 -29 -13 -45z m-247 20 c1 -22 0 -24 -8 -13
-12 18 -13 40 -2 40 4 0 9 -12 10 -27z m977 17 c-3 -5 -13 -10 -21 -10 -8 0
-12 5 -9 10 3 6 13 10 21 10 8 0 12 -4 9 -10z m-993 -48 c8 -9 7 -11 -5 -6
-11 4 -17 -2 -20 -18 -3 -13 -5 -5 -4 17 0 46 10 70 15 40 2 -11 9 -26 14 -33z
m202 33 c-4 -8 -11 -12 -16 -9 -6 4 -5 10 3 15 19 12 19 11 13 -6z m-34 -5 c0
-5 -4 -10 -10 -10 -5 0 -10 5 -10 10 0 6 5 10 10 10 6 0 10 -4 10 -10z m-213
-22 c-3 -8 -6 -5 -6 6 -1 11 2 17 5 13 3 -3 4 -12 1 -19z m336 2 c-3 -11 -7
-20 -9 -20 -2 0 -4 9 -4 20 0 11 4 20 9 20 5 0 7 -9 4 -20z m-365 -30 c0 -22
-3 -40 -7 -40 -6 0 -7 31 -3 68 4 28 11 9 10 -28z m182 26 c0 -3 -4 -8 -10
-11 -5 -3 -10 -1 -10 4 0 6 5 11 10 11 6 0 10 -2 10 -4z m935 -6 c-3 -5 -10
-10 -16 -10 -5 0 -9 5 -9 10 0 6 7 10 16 10 8 0 12 -4 9 -10z m-1221 -25 c-4
-8 -8 -15 -10 -15 -2 0 -4 7 -4 15 0 8 4 15 10 15 5 0 7 -7 4 -15z m130 -10
c3 -8 1 -15 -4 -15 -6 0 -10 7 -10 15 0 8 2 15 4 15 2 0 6 -7 10 -15z m53 -7
c-3 -8 -6 -5 -6 6 -1 11 2 17 5 13 3 -3 4 -12 1 -19z m250 16 c-3 -3 -12 -4
-19 -1 -8 3 -5 6 6 6 11 1 17 -2 13 -5z m1149 -29 c-17 -40 -35 -73 -36 -64 0
12 23 74 33 87 17 21 18 13 3 -23z m-1179 9 c-3 -3 -12 -4 -19 -1 -8 3 -5 6 6
6 11 1 17 -2 13 -5z m-368 -41 c14 -11 14 -12 -1 -13 -12 0 -18 -8 -18 -24 0
-19 5 -24 20 -23 11 1 20 8 21 17 0 10 3 9 9 -5 14 -32 12 -34 -20 -30 -25 3
-30 0 -31 -18 -1 -20 -1 -20 -8 3 -4 14 -6 39 -5 55 1 17 3 41 4 55 1 16 4 20
7 10 4 -8 13 -20 22 -27z m101 17 c0 -5 -5 -10 -11 -10 -5 0 -7 5 -4 10 3 6 8
10 11 10 2 0 4 -4 4 -10z m55 -10 c3 -5 1 -10 -4 -10 -6 0 -11 5 -11 10 0 6 2
10 4 10 3 0 8 -4 11 -10z m222 4 c-3 -3 -12 -4 -19 -1 -8 3 -5 6 6 6 11 1 17
-2 13 -5z m29 -20 c-4 -9 -9 -15 -11 -12 -3 3 -3 13 1 22 4 9 9 15 11 12 3 -3
3 -13 -1 -22z m-356 6 c-20 -13 -33 -13 -25 0 3 6 14 10 23 10 15 0 15 -2 2
-10z m1246 -1 c5 -8 -1 -10 -19 -5 -14 3 -29 2 -32 -4 -3 -5 -14 -10 -23 -10
-15 1 -15 2 2 15 24 18 62 20 72 4z m-1202 -22 c-2 -7 -13 -13 -23 -13 -11 0
-17 6 -14 13 3 6 12 9 20 6 12 -5 14 -3 8 7 -5 8 -4 11 3 6 6 -4 9 -12 6 -19z
m80 -9 c-4 -34 -4 -34 -14 -18 -8 12 -10 12 -16 -3 -3 -10 -19 -24 -34 -32
-25 -13 -29 -13 -34 1 -9 23 -7 34 5 34 6 0 9 -7 5 -15 -7 -19 17 -20 33 -1 9
11 8 15 -6 20 -24 10 1 25 31 19 17 -4 18 -3 6 6 -13 9 -12 11 6 11 16 0 20
-6 18 -22z m255 5 c0 -5 -4 -17 -9 -28 -8 -18 -9 -17 -9 8 -1 15 4 27 9 27 6
0 10 -3 9 -7z m-165 -46 c-4 -33 -5 -34 -14 -7 -6 22 -8 23 -15 7 -5 -11 -2
-22 7 -30 21 -17 50 -66 44 -75 -2 -4 2 -16 10 -27 13 -18 14 -18 15 6 1 13 1
30 0 37 -1 6 3 12 9 12 6 0 8 -5 5 -10 -4 -6 3 -9 16 -7 13 2 25 9 27 15 2 7
8 10 13 6 5 -3 9 7 8 23 0 25 -1 26 -10 8 -8 -17 -9 -17 -4 5 2 14 5 31 5 39
0 32 14 -3 18 -44 2 -34 -1 -47 -12 -51 -9 -3 -16 -14 -16 -23 0 -14 2 -14 11
-1 8 12 9 11 5 -5 -3 -11 -8 -32 -12 -47 -3 -16 -11 -28 -16 -28 -6 0 -8 9 -5
21 4 14 1 19 -7 16 -7 -3 -13 5 -14 21 -3 33 -12 42 -12 11 0 -38 -16 -56 -24
-27 l-7 23 -9 -22 c-5 -13 -14 -23 -21 -23 -6 0 -9 -7 -6 -15 4 -8 1 -17 -5
-21 -7 -4 -8 -3 -4 4 5 8 -1 12 -14 12 -11 0 -32 12 -46 27 -14 15 -24 21 -22
13 2 -8 8 -19 13 -23 11 -9 -8 -21 -22 -15 -13 5 -14 40 -2 54 6 8 9 21 5 30
-5 14 31 75 59 97 5 5 0 5 -12 2 -18 -5 -22 -3 -17 10 4 10 14 15 25 12 10 -3
20 1 23 9 8 21 33 6 30 -19z m102 -2 c-4 -14 -11 -23 -16 -20 -6 3 -10 1 -10
-6 0 -7 -2 -10 -5 -7 -3 2 2 19 11 37 18 37 30 35 20 -4z m934 16 c0 -10 -70
-71 -81 -71 -8 0 65 80 74 80 4 0 7 -4 7 -9z m-1243 -23 c-3 -8 -6 -5 -6 6 -1
11 2 17 5 13 3 -3 4 -12 1 -19z m233 12 c0 -5 -5 -10 -11 -10 -5 0 -7 5 -4 10
3 6 8 10 11 10 2 0 4 -4 4 -10z m18 -61 c-6 -4 -17 -5 -24 -2 -17 6 -26 31
-14 38 6 4 10 -1 10 -9 0 -9 5 -16 10 -16 6 0 9 3 9 8 -1 4 0 16 1 27 1 15 4
13 11 -10 6 -20 5 -31 -3 -36z m-300 29 c-2 -7 6 -13 17 -13 11 -1 26 -5 34
-10 11 -6 13 -4 8 9 -4 10 -3 15 3 11 6 -3 10 -15 10 -25 0 -14 -5 -18 -16
-13 -9 3 -25 7 -37 8 -12 1 -25 3 -29 4 -12 2 -9 41 2 41 6 0 9 -6 8 -12z
m160 0 c-2 -6 -11 -12 -19 -14 -7 -1 -22 -5 -31 -9 -12 -5 -18 -3 -18 6 0 7 3
10 6 7 3 -4 17 0 32 8 33 17 35 17 30 2z m186 -33 c-4 -8 -8 -15 -10 -15 -2 0
-4 7 -4 15 0 8 4 15 10 15 5 0 7 -7 4 -15z m809 -30 c-3 -9 -8 -14 -10 -11 -3
3 -2 9 2 15 9 16 15 13 8 -4z m-1086 -27 c-3 -7 -5 -2 -5 12 0 14 2 19 5 13 2
-7 2 -19 0 -25z m60 18 c-3 -7 0 -19 6 -25 8 -8 8 -11 -1 -11 -7 0 -12 -7 -12
-15 0 -8 -4 -15 -8 -15 -4 0 -8 14 -7 30 0 17 4 30 8 30 5 0 5 5 2 10 -3 6 -1
10 5 10 7 0 10 -6 7 -14z m-77 -17 c0 -14 -17 -10 -23 5 -4 10 -1 13 9 9 7 -3
14 -9 14 -14z m40 -39 c-8 -34 -8 -33 -7 13 0 28 4 43 8 35 4 -7 4 -29 -1 -48z
m1040 56 c0 -2 -8 -10 -17 -17 -16 -13 -17 -12 -4 4 13 16 21 21 21 13z
m-1147 -25 c2 -10 1 -24 -3 -31 -5 -7 -9 0 -12 19 -5 34 7 43 15 12z m27 -6
c0 -14 -4 -25 -9 -25 -4 0 -6 11 -3 25 2 14 6 25 8 25 2 0 4 -11 4 -25z m3460
6 c0 -12 -20 -25 -27 -18 -7 7 6 27 18 27 5 0 9 -4 9 -9z m-3460 -51 c0 -5 -2
-10 -4 -10 -3 0 -8 5 -11 10 -3 6 -1 10 4 10 6 0 11 -4 11 -10z m54 -5 c-4 -8
-8 -15 -10 -15 -2 0 -4 7 -4 15 0 8 4 15 10 15 5 0 7 -7 4 -15z m3388 -42
l-10 -38 -1 50 c-1 36 2 46 10 38 8 -8 8 -22 1 -50z m-3109 13 c22 8 9 -44
-14 -57 -13 -6 -19 -6 -19 1 0 5 -4 10 -9 10 -5 0 -8 -11 -6 -25 1 -14 -2 -28
-8 -32 -7 -4 -8 10 -4 42 4 26 7 57 8 69 1 19 2 18 9 -4 8 -25 8 -25 10 5 1
28 2 29 10 8 6 -14 15 -21 23 -17z m-231 -11 c-2 -19 -8 -35 -13 -35 -5 0 -6
12 -3 28 5 18 3 24 -4 17 -5 -5 -12 -19 -15 -30 -4 -16 -5 -15 -6 6 -1 18 6
29 22 37 12 6 22 11 22 11 1 1 -1 -15 -3 -34z m-77 15 c-3 -5 -12 -10 -18 -10
-7 0 -6 4 3 10 19 12 23 12 15 0z m-39 -45 c1 -59 -12 -59 -15 0 -1 25 2 45 6
45 4 0 8 -20 9 -45z m144 35 c0 -5 -4 -10 -10 -10 -5 0 -10 5 -10 10 0 6 5 10
10 10 6 0 10 -4 10 -10z m68 4 c-10 -9 -58 -12 -52 -3 3 5 17 9 31 9 15 0 24
-3 21 -6z m762 -4 c0 -5 -5 -10 -11 -10 -6 0 -25 -10 -41 -22 -19 -13 -29 -16
-26 -8 4 13 54 48 71 49 4 1 7 -3 7 -9z m-740 -34 c0 -8 -7 -19 -15 -26 -11
-10 -18 -9 -30 3 -25 26 -17 39 12 20 26 -17 26 -17 21 5 -4 12 -2 20 3 16 5
-3 9 -11 9 -18z m-77 -15 c-4 -15 -8 -19 -13 -10 -5 6 -3 18 3 24 16 17 17 14
10 -14z m114 23 c-3 -3 -12 -4 -19 -1 -8 3 -5 6 6 6 11 1 17 -2 13 -5z m-213
-29 c-4 -8 -11 -15 -16 -15 -6 0 -5 6 2 15 7 8 14 15 16 15 2 0 1 -7 -2 -15z
m814 -5 c-9 -13 -14 -16 -20 -7 -4 6 -2 15 5 19 21 14 28 9 15 -12z m-38 -18
c0 -8 -83 -72 -93 -72 -2 0 -48 -25 -102 -55 -54 -31 -99 -54 -101 -52 -2 2
30 22 71 46 41 23 81 48 87 55 32 30 85 65 91 59 4 -3 7 -1 7 5 0 6 7 9 17 5
11 -4 14 -3 9 5 -4 7 -2 12 3 12 6 0 11 -4 11 -8z m2617 -69 c-2 -16 -4 -3 -4
27 0 30 2 43 4 28 2 -16 2 -40 0 -55z m-3347 57 c0 -5 -5 -10 -11 -10 -5 0 -7
5 -4 10 3 6 8 10 11 10 2 0 4 -4 4 -10z m-90 -45 c-10 -12 -10 -15 1 -16 10 0
11 -2 2 -6 -7 -2 -13 -9 -13 -14 0 -6 4 -8 9 -5 5 3 11 -1 15 -9 3 -8 1 -15
-4 -15 -6 0 -10 -9 -10 -20 0 -15 7 -20 27 -20 32 0 25 -10 -11 -14 -28 -3
-28 -3 -28 74 0 38 4 68 12 90 1 3 4 -3 7 -13 3 -10 -1 -24 -7 -32z m137 23
c-3 -8 -6 -5 -6 6 -1 11 2 17 5 13 3 -3 4 -12 1 -19z m-110 -35 c-3 -10 -5 -2
-5 17 0 19 2 27 5 18 2 -10 2 -26 0 -35z m178 37 c-3 -5 -2 -10 3 -10 5 0 7
-13 4 -30 -5 -33 -16 -39 -26 -14 -3 9 -2 12 5 8 7 -4 10 3 9 17 -3 30 -1 39
6 39 3 0 2 -4 -1 -10z m102 -10 c-1 -11 -5 -20 -10 -20 -5 0 -5 -10 -2 -21 5
-14 2 -25 -6 -30 -10 -6 -11 -9 -1 -9 6 0 12 -9 12 -20 0 -11 -5 -20 -11 -20
-5 0 -7 5 -4 10 4 6 2 17 -5 25 -7 9 -8 15 0 20 7 4 7 12 0 26 -7 13 -7 19 0
19 5 0 10 9 10 20 0 11 4 20 9 20 6 0 9 -9 8 -20z m-197 -20 c0 -5 -5 -10 -11
-10 -5 0 -7 5 -4 10 3 6 8 10 11 10 2 0 4 -4 4 -10z m-50 -20 c0 -5 -2 -10 -4
-10 -3 0 -8 5 -11 10 -3 6 -1 10 4 10 6 0 11 -4 11 -10z m190 -11 c0 -5 -5 -9
-11 -9 -6 0 -8 -9 -4 -20 4 -13 2 -20 -7 -20 -8 -1 -5 -7 7 -17 18 -14 18 -15
2 -9 -10 3 -28 6 -40 7 -21 0 -21 1 -2 9 11 5 16 9 10 9 -5 1 -4 5 4 10 7 5
14 20 14 34 0 17 4 24 13 20 8 -3 14 -9 14 -14z m-148 -11 c-7 -7 -12 -8 -12
-2 0 14 12 26 19 19 2 -3 -1 -11 -7 -17z m25 -10 c-3 -8 -6 -5 -6 6 -1 11 2
17 5 13 3 -3 4 -12 1 -19z m53 -8 c0 -5 -7 -10 -15 -10 -8 0 -15 -5 -15 -12 0
-6 -3 -8 -7 -4 -5 4 1 14 11 22 23 17 26 17 26 4z m77 -12 c-3 -8 -6 -5 -6 6
-1 11 2 17 5 13 3 -3 4 -12 1 -19z m3192 -43 c1 -46 -10 -80 -20 -63 -10 16
-11 73 -2 107 6 23 7 23 14 5 4 -10 8 -32 8 -49z m-3382 13 c-3 -8 -6 -5 -6 6
-1 11 2 17 5 13 3 -3 4 -12 1 -19z m50 -40 c-3 -7 -5 -2 -5 12 0 14 2 19 5 13
2 -7 2 -19 0 -25z m173 13 c0 -6 -4 -13 -10 -16 -5 -3 -10 1 -10 9 0 9 5 16
10 16 6 0 10 -4 10 -9z m-63 -7 c-3 -4 -2 -15 4 -25 7 -15 6 -17 -6 -13 -8 3
-12 11 -9 16 4 6 -2 8 -17 3 -23 -7 -24 -7 -4 9 19 15 45 23 32 10z m-132 -24
c-3 -5 -11 -10 -16 -10 -6 0 -7 5 -4 10 3 6 11 10 16 10 6 0 7 -4 4 -10z m-98
-32 c-3 -8 -6 -5 -6 6 -1 11 2 17 5 13 3 -3 4 -12 1 -19z m433 -8 c-22 -31
-49 -54 -35 -29 10 17 47 59 52 59 3 0 -5 -13 -17 -30z m-243 -32 c-3 -8 -6
-5 -6 6 -1 11 2 17 5 13 3 -3 4 -12 1 -19z m-172 -28 c3 -5 1 -10 -4 -10 -6 0
-11 5 -11 10 0 6 2 10 4 10 3 0 8 -4 11 -10z m252 -12 c-3 -8 -6 -5 -6 6 -1
11 2 17 5 13 3 -3 4 -12 1 -19z m87 -55 c-7 -21 -14 -47 -14 -58 -1 -12 -4
-15 -7 -7 -6 16 16 102 27 102 4 0 2 -17 -6 -37z m-84 23 c0 -3 -4 -8 -10 -11
-5 -3 -10 -1 -10 4 0 6 5 11 10 11 6 0 10 -2 10 -4z m-120 -13 c0 -1 -9 -7
-20 -13 -15 -8 -20 -8 -20 3 0 7 9 13 20 13 11 0 20 -1 20 -3z m3267 -35 c-3
-7 -5 -2 -5 12 0 14 2 19 5 13 2 -7 2 -19 0 -25z m-3405 -3 c3 -14 1 -25 -3
-25 -5 0 -9 11 -9 25 0 14 2 25 4 25 2 0 6 -11 8 -25z m133 5 c3 -5 1 -10 -4
-10 -6 0 -11 5 -11 10 0 6 2 10 4 10 3 0 8 -4 11 -10z m120 -19 c3 -5 1 -12
-5 -16 -5 -3 -10 1 -10 9 0 18 6 21 15 7z m1812 -68 c-3 -10 -5 -4 -5 12 0 17
2 24 5 18 2 -7 2 -21 0 -30z m-1810 -70 c-3 -10 -5 -2 -5 17 0 19 2 27 5 18 2
-10 2 -26 0 -35z m-27 23 c0 -2 -7 -6 -15 -10 -8 -3 -15 -1 -15 4 0 6 7 10 15
10 8 0 15 -2 15 -4z m1837 -178 c-3 -7 -5 -2 -5 12 0 14 2 19 5 13 2 -7 2 -19
0 -25z m-2352 -48 c-3 -5 -1 -10 6 -10 7 0 10 -3 6 -6 -3 -3 1 -24 8 -45 8
-23 10 -37 4 -33 -20 12 -45 104 -29 104 6 0 8 -4 5 -10z m-1 -120 c5 -29 3
-27 -14 15 -24 59 -25 66 -6 40 7 -11 16 -36 20 -55z m333 8 c-3 -8 -6 -5 -6
6 -1 11 2 17 5 13 3 -3 4 -12 1 -19z m3777 -16 c2 -4 -4 -8 -15 -8 -10 0 -19
4 -19 8 0 4 6 8 14 8 8 0 17 -4 20 -8z m-523 -55 c-6 -6 -12 -22 -12 -36 -1
-18 -3 -20 -6 -8 -5 19 20 84 26 66 2 -6 -2 -16 -8 -22z m769 -101 c0 -3 -4
-8 -10 -11 -5 -3 -10 -1 -10 4 0 6 5 11 10 11 6 0 10 -2 10 -4z m-660 -66 c0
-5 -4 -10 -10 -10 -5 0 -10 5 -10 10 0 6 5 10 10 10 6 0 10 -4 10 -10z m208
-49 c2 -33 -12 -42 -22 -15 -3 9 -6 27 -6 41 0 37 25 13 28 -26z m81 7 c-5
-18 -9 -49 -10 -68 l-1 -35 -9 41 c-6 26 -6 51 0 68 15 38 32 33 20 -6z m81
-24 c0 -36 -14 -53 -24 -28 -3 9 -6 32 -6 51 0 30 2 34 15 23 8 -7 15 -27 15
-46z m75 -15 c-5 -35 -10 -47 -16 -38 -12 19 -11 42 1 75 16 40 23 22 15 -37z
m85 41 c0 -5 -4 -10 -9 -10 -6 0 -13 5 -16 10 -3 6 1 10 9 10 9 0 16 -4 16
-10z m-3887 -57 c18 -40 -2 -38 -45 5 l-42 41 38 -11 c23 -7 42 -21 49 -35z
m223 17 c0 -22 -22 -35 -32 -19 -6 10 13 39 25 39 4 0 7 -9 7 -20z m3171 -72
c-2 -18 -4 -4 -4 32 0 36 2 50 4 33 2 -18 2 -48 0 -65z m-2944 20 c14 -29 46
-102 72 -163 26 -60 51 -114 56 -119 20 -22 -15 -46 -112 -76 l-100 -31 -67
63 c-89 84 -242 240 -242 247 0 6 157 65 202 76 19 5 25 12 21 23 -3 13 -2 14
4 4 8 -10 19 -8 54 7 71 33 85 29 112 -31z m3427 7 c5 -6 0 -21 -12 -35 l-20
-25 6 25 c3 14 6 39 7 55 1 21 3 24 6 10 3 -11 9 -25 13 -30z m-394 -11 c-4
-20 -10 -34 -13 -30 -3 3 -2 21 1 42 4 20 10 34 13 30 3 -3 2 -21 -1 -42z
m-209 4 c-3 -8 -6 -5 -6 6 -1 11 2 17 5 13 3 -3 4 -12 1 -19z m306 -18 c-7
-28 -13 -25 -13 6 0 14 4 23 9 20 5 -3 7 -15 4 -26z m-2488 10 c3 -5 1 -10 -4
-10 -6 0 -11 5 -11 10 0 6 2 10 4 10 3 0 8 -4 11 -10z m2242 -42 c-2 -13 -4
-5 -4 17 -1 22 1 32 4 23 2 -10 2 -28 0 -40z m400 10 c-3 -7 -5 -2 -5 12 0 14
2 19 5 13 2 -7 2 -19 0 -25z m-2560 6 c-3 -3 -12 -4 -19 -1 -8 3 -5 6 6 6 11
1 17 -2 13 -5z m116 -1 c-7 -2 -19 -2 -25 0 -7 3 -2 5 12 5 14 0 19 -2 13 -5z
m2333 -51 c-12 -12 -18 8 -10 35 l8 28 4 -28 c2 -16 1 -31 -2 -35z m160 -20
c-13 -12 -17 8 -9 44 l8 39 3 -39 c2 -21 1 -41 -2 -44z m-2502 47 c5 -4 -8 -3
-30 2 -21 6 -41 13 -44 16 -9 9 65 -9 74 -18z m1305 -60 c-23 -14 -35 9 -13
25 17 13 19 13 22 -1 2 -9 -2 -19 -9 -24z m-61 -4 c-14 -12 -33 -34 -43 -49
-10 -15 -20 -24 -23 -22 -8 9 71 105 81 99 6 -3 -1 -16 -15 -28z m629 13 c-3
-8 -6 -5 -6 6 -1 11 2 17 5 13 3 -3 4 -12 1 -19z m703 12 c0 -5 -4 -10 -10
-10 -5 0 -10 5 -10 10 0 6 5 10 10 10 6 0 10 -4 10 -10z m-700 -61 c0 -11 -4
-18 -10 -14 -5 3 -7 12 -3 20 7 21 13 19 13 -6z m-3160 -97 c27 -25 21 -23
-48 11 -19 9 -40 17 -48 17 -17 0 -18 14 -2 39 11 19 13 18 42 -12 17 -18 42
-42 56 -55z m2456 11 c-10 -10 -19 5 -10 18 6 11 8 11 12 0 2 -7 1 -15 -2 -18z
m1504 23 c0 -11 -19 -15 -25 -6 -3 5 1 10 9 10 9 0 16 -2 16 -4z m-4131 -125
c0 -10 -4 -6 -10 8 -7 18 -12 21 -23 12 -17 -15 -39 9 -30 33 6 15 10 14 35
-10 16 -15 29 -35 28 -43z m169 32 c18 -17 7 -16 -28 2 -17 9 -30 20 -30 25 0
11 34 -6 58 -27z m236 10 c14 -15 22 -31 17 -36 -11 -11 -61 13 -61 30 0 7 -6
13 -12 14 -10 0 7 11 29 18 1 1 14 -11 27 -26z m2535 -105 c22 -67 36 -120 30
-123 -5 -4 -14 6 -20 22 -62 162 -79 215 -73 224 11 18 21 -2 63 -123z m-2713
64 c12 -10 25 -28 29 -41 7 -22 6 -22 -22 -7 -37 18 -57 42 -48 56 9 14 16 12
41 -8z m2464 -33 c0 -17 -4 -28 -10 -24 -5 3 -10 17 -10 31 0 13 5 24 10 24 6
0 10 -14 10 -31z m-2567 -20 l42 -41 -37 27 c-29 21 -38 24 -38 12 0 -9 9 -19
20 -22 11 -4 18 -10 15 -15 -3 -4 2 -11 11 -14 9 -4 14 -9 11 -12 -7 -8 -41
11 -72 40 -28 26 -33 41 -9 32 10 -4 14 -1 11 6 -2 7 -17 12 -33 11 -22 -2
-25 0 -14 7 28 18 51 10 93 -31z m427 -14 c0 -2 -13 0 -29 5 -16 4 -32 6 -35
2 -3 -3 -6 -1 -6 5 0 20 13 22 41 7 16 -8 29 -16 29 -19z m-3 -43 c-19 -4 -47
14 -47 29 0 5 15 2 33 -8 25 -13 28 -18 14 -21z m-491 -41 c33 -30 49 -49 37
-43 -25 14 -136 117 -112 105 9 -4 43 -32 75 -62z m5448 -620 c3 -5 -1 -11 -9
-15 -15 -6 -29 7 -18 18 9 9 21 8 27 -3z m-5972 -2328 l3 -88 23 38 c22 34 27
37 69 37 l45 0 -41 -47 -40 -47 45 -62 c24 -35 44 -65 44 -68 0 -3 -20 -6 -44
-6 -41 0 -44 2 -67 45 -13 25 -27 45 -31 45 -4 0 -8 -19 -10 -42 -3 -42 -4
-43 -40 -46 l-38 -3 0 165 0 166 40 0 39 0 3 -87z m5680 -5 l3 -92 28 42 c25
39 30 42 73 42 l46 0 -41 -46 -40 -46 44 -63 c25 -34 45 -65 45 -69 0 -3 -19
-6 -43 -6 -40 0 -44 3 -70 47 -31 51 -47 46 -47 -14 0 -31 -2 -33 -35 -33
l-35 0 0 165 0 165 35 0 34 0 3 -92z m-6285 57 c94 -55 90 -213 -6 -269 -24
-14 -59 -21 -118 -24 l-83 -5 0 156 c0 115 3 157 13 161 27 12 163 -1 194 -19z
m4463 -103 c22 -71 43 -143 46 -160 6 -31 6 -32 -29 -32 -34 0 -37 3 -48 40
-12 41 -13 41 -57 38 -41 -3 -45 -6 -56 -38 -8 -25 -18 -36 -34 -38 -52 -8
-53 -1 -6 150 24 79 46 149 49 156 2 7 23 12 49 12 l45 0 41 -128z m266 122
c18 -5 21 -10 15 -32 -7 -25 -11 -27 -50 -24 -39 4 -71 -10 -71 -29 0 -5 27
-22 60 -39 80 -41 98 -77 65 -139 -23 -45 -114 -66 -179 -42 -21 9 -23 14 -17
38 6 21 13 27 27 24 10 -3 37 -5 59 -5 34 -1 40 2 43 21 3 17 -6 27 -40 44
-24 12 -53 31 -65 42 -41 37 -23 116 31 137 25 10 92 12 122 4z m288 -138 c26
-79 46 -151 46 -160 0 -12 -9 -16 -35 -16 -31 0 -35 3 -46 40 -12 41 -13 41
-57 38 -41 -3 -45 -6 -56 -38 -8 -25 -18 -36 -34 -38 -52 -8 -53 -1 -6 150 24
79 46 149 49 156 2 7 23 12 49 12 l45 0 45 -144z m261 130 c40 -17 55 -42 55
-91 0 -51 -41 -91 -103 -100 l-46 -7 -3 -52 -3 -51 -35 0 -35 0 -3 149 c-2
113 1 151 10 158 21 13 126 9 163 -6z m392 -20 c29 -34 30 -75 2 -110 -15 -18
-18 -30 -11 -39 10 -12 42 -112 42 -129 0 -5 -17 -8 -37 -6 -36 3 -38 5 -53
58 -14 47 -20 55 -42 58 -26 3 -27 2 -30 -55 l-3 -58 -35 0 -35 0 -3 149 c-2
113 1 152 10 158 7 5 49 7 92 5 71 -3 82 -7 103 -31z m-5417 -81 c0 -28 -4
-35 -19 -35 -37 0 -51 -27 -51 -101 l0 -69 -35 0 -35 0 0 115 0 115 30 0 c21
0 30 -5 30 -16 0 -13 5 -12 26 5 39 31 54 27 54 -14z m165 20 c45 -18 55 -46
55 -146 l0 -79 -29 0 c-17 0 -33 5 -37 11 -4 8 -9 8 -17 0 -6 -6 -28 -11 -48
-11 -29 0 -43 6 -58 26 -12 15 -21 34 -21 44 0 32 40 70 86 81 60 16 57 33 -6
27 -27 -3 -50 -2 -50 3 0 4 -3 14 -6 23 -4 11 4 18 28 25 47 13 64 13 103 -4z
m524 -20 c18 -17 24 -35 25 -67 l1 -43 -74 -5 c-68 -5 -73 -6 -56 -20 12 -10
36 -14 67 -13 45 2 48 1 48 -22 0 -30 -30 -40 -97 -32 -68 7 -98 42 -98 112 0
46 4 58 29 84 45 47 111 50 155 6z m4978 10 c29 -20 43 -53 43 -107 0 -32 -7
-47 -35 -75 -34 -34 -38 -35 -92 -31 -45 4 -61 10 -79 32 -93 108 43 259 163
181z m239 19 c18 -5 21 -10 15 -32 -6 -23 -12 -27 -38 -24 -39 4 -63 -20 -63
-62 0 -42 16 -56 61 -56 31 0 37 -4 41 -25 3 -13 3 -27 0 -30 -3 -3 -30 -5
-60 -5 -49 0 -58 4 -89 35 -33 33 -35 39 -31 85 8 86 82 136 164 114z m374
-45 c6 -23 16 -53 22 -68 10 -25 12 -22 27 39 17 64 17 65 54 68 20 2 37 -1
37 -7 0 -22 -70 -204 -94 -245 -22 -38 -89 -86 -102 -74 -2 3 -7 19 -10 36 -5
24 -3 32 8 32 8 0 23 9 33 20 17 19 16 23 -24 122 -23 57 -41 106 -41 111 0 4
18 7 40 7 38 0 40 -2 50 -41z m-6569 -339 c17 -10 19 -22 19 -111 0 -99 0
-100 -27 -110 -17 -6 -40 -7 -58 -2 -28 8 -30 13 -35 63 -3 30 -8 60 -12 66
-10 15 10 76 30 92 19 15 56 16 83 2z m6640 0 c17 -10 19 -22 19 -111 0 -99 0
-100 -27 -110 -17 -6 -40 -7 -58 -2 -28 8 -30 13 -35 63 -3 30 -8 60 -12 66
-10 15 10 76 30 92 19 15 56 16 83 2z m-6415 -96 l17 -46 20 52 c10 28 24 49
30 47 15 -5 22 -137 8 -137 -5 0 -11 21 -13 48 l-3 47 -16 -44 c-8 -25 -20
-46 -25 -48 -6 -2 -17 16 -25 39 l-14 42 -8 -42 c-12 -63 -28 -52 -21 16 10
99 20 104 50 26z m524 -14 c0 -56 -3 -70 -15 -70 -12 0 -15 14 -15 70 0 56 3
70 15 70 12 0 15 -14 15 -70z m40 0 c0 -40 -4 -70 -10 -70 -6 0 -10 30 -10 70
0 40 4 70 10 70 6 0 10 -30 10 -70z m4976 14 l17 -46 20 52 c10 28 24 49 30
47 15 -5 22 -137 8 -137 -5 0 -11 21 -13 48 l-3 47 -16 -44 c-8 -25 -20 -46
-25 -48 -6 -2 -17 16 -25 39 l-14 42 -8 -42 c-12 -63 -28 -52 -21 16 10 99 20
104 50 26z m524 -14 c0 -56 -3 -70 -15 -70 -12 0 -15 14 -15 70 0 56 3 70 15
70 12 0 15 -14 15 -70z m40 0 c0 -40 -4 -70 -10 -70 -6 0 -10 30 -10 70 0 40
4 70 10 70 6 0 10 -30 10 -70z m-5630 56 c0 -3 -4 -8 -10 -11 -5 -3 -10 -1
-10 4 0 6 5 11 10 11 6 0 10 -2 10 -4z m5540 0 c0 -3 -4 -8 -10 -11 -5 -3 -10
-1 -10 4 0 6 5 11 10 11 6 0 10 -2 10 -4z m-5842 -38 c7 -7 12 -29 12 -50 0
-37 -1 -38 -35 -38 -23 0 -38 6 -41 15 -8 20 13 45 37 45 11 0 19 5 19 10 0 6
-11 10 -25 10 -14 0 -25 5 -25 10 0 14 43 13 58 -2z m92 2 c0 -6 -7 -10 -15
-10 -11 0 -15 -11 -15 -40 0 -29 -4 -40 -15 -40 -11 0 -15 11 -15 43 0 24 2
46 4 48 10 9 56 8 56 -1z m60 0 c0 -5 -7 -10 -15 -10 -21 0 -19 -9 7 -29 29
-24 18 -51 -22 -51 -17 0 -29 4 -25 10 3 5 12 7 19 4 23 -9 28 14 6 26 -19 10
-27 40 -13 53 10 11 43 8 43 -3z m98 -2 c7 -7 12 -20 12 -30 0 -14 -8 -18 -36
-18 -32 0 -35 -2 -23 -16 7 -8 21 -13 31 -11 10 3 18 1 18 -4 0 -5 -13 -9 -30
-9 -45 0 -66 52 -34 84 18 19 45 21 62 4z m52 -38 c0 -27 -4 -50 -10 -50 -5 0
-10 23 -10 50 0 28 5 50 10 50 6 0 10 -22 10 -50z m188 38 c7 -7 12 -20 12
-30 0 -14 -8 -18 -36 -18 -32 0 -35 -2 -23 -16 7 -8 21 -13 31 -11 10 3 18 1
18 -4 0 -5 -14 -9 -30 -9 -23 0 -33 6 -42 25 -21 46 36 97 70 63z m5050 0 c7
-7 12 -29 12 -51 0 -38 0 -38 -37 -35 -30 2 -38 7 -38 23 0 11 10 24 23 30 27
12 29 25 2 25 -11 0 -20 5 -20 10 0 14 43 13 58 -2z m92 -1 c0 -8 3 -8 12 1
15 15 48 16 48 2 0 -5 -7 -10 -15 -10 -21 0 -19 -9 7 -29 29 -24 18 -51 -22
-51 -19 0 -29 4 -25 10 4 6 11 8 16 5 5 -4 14 -3 19 0 11 7 -42 65 -59 65 -6
0 -11 -18 -11 -40 0 -29 -4 -40 -15 -40 -11 0 -15 12 -15 48 0 47 1 49 30 50
17 0 30 -4 30 -11z m158 1 c7 -7 12 -20 12 -30 0 -14 -8 -18 -36 -18 -32 0
-35 -2 -23 -16 7 -8 21 -13 31 -11 10 3 18 1 18 -4 0 -13 -54 -11 -68 3 -27
27 -5 88 31 88 13 0 28 -5 35 -12z m52 -38 c0 -27 -4 -50 -10 -50 -5 0 -10 23
-10 50 0 28 5 50 10 50 6 0 10 -22 10 -50z m188 38 c7 -7 12 -20 12 -30 0 -13
-8 -18 -30 -18 -16 0 -30 -4 -30 -9 0 -11 29 -23 40 -16 5 3 12 0 15 -6 5 -7
-6 -9 -31 -7 -32 2 -40 8 -48 30 -16 46 39 89 72 56z m-5998 -417 l0 -98 -45
-1 c-55 -1 -75 17 -75 67 0 46 28 76 65 69 23 -5 25 -2 25 28 0 24 5 34 15 34
12 0 15 -18 15 -99z m-355 69 c39 -32 3 -100 -52 -100 -20 0 -23 -5 -23 -35 0
-24 -5 -35 -15 -35 -12 0 -15 16 -15 88 0 49 3 92 8 96 10 11 80 0 97 -14z
m1094 9 c38 -13 51 -35 51 -86 -1 -62 -38 -93 -109 -93 l-41 0 0 88 c0 49 3
92 7 95 10 11 56 8 92 -4z m101 -23 c-13 -13 -35 7 -25 24 5 8 11 8 21 -1 10
-8 12 -15 4 -23z m3531 -33 l22 -68 22 65 c14 41 28 66 38 68 23 5 22 -3 -14
-102 -42 -113 -56 -114 -92 -3 -31 95 -32 107 -13 107 9 0 23 -26 37 -67z
m979 27 l0 -40 40 0 40 0 0 40 c0 29 4 40 15 40 12 0 15 -17 15 -95 0 -78 -3
-95 -15 -95 -11 0 -15 11 -15 40 l0 40 -40 0 -40 0 0 -40 c0 -29 -4 -40 -15
-40 -12 0 -15 17 -15 95 0 78 3 95 15 95 11 0 15 -11 15 -40z m-5650 -22 c0
-9 3 -9 12 0 7 7 18 12 25 12 21 0 15 -28 -7 -35 -16 -5 -20 -15 -20 -56 0
-36 -4 -49 -14 -49 -11 0 -15 17 -18 66 -1 36 -1 68 1 70 9 8 21 4 21 -8z
m142 -5 c13 -12 18 -30 18 -69 l0 -53 -46 2 c-73 3 -89 56 -24 80 38 15 38 27
0 27 -48 0 -35 27 14 29 11 1 28 -6 38 -16z m272 1 c11 -10 16 -34 16 -69 l0
-54 -46 2 c-80 3 -88 58 -13 84 27 9 31 13 17 18 -10 4 -25 5 -33 2 -19 -8
-31 13 -14 24 22 14 56 11 73 -7z m726 -54 c0 -56 -3 -70 -15 -70 -12 0 -15
14 -15 70 0 56 3 70 15 70 12 0 15 -14 15 -70z m132 53 c24 -27 30 -60 17 -85
-16 -30 -28 -38 -60 -38 -35 0 -58 19 -65 55 -12 63 68 113 108 68z m118 2 c0
-7 -9 -15 -20 -18 -17 -4 -20 -14 -20 -56 0 -44 -3 -51 -20 -51 -18 0 -20 7
-20 63 0 35 2 66 5 68 11 12 75 6 75 -6z m3464 -1 c11 -10 16 -34 16 -69 l0
-54 -46 2 c-80 3 -88 58 -13 84 27 9 31 13 17 18 -10 4 -25 5 -33 2 -19 -8
-31 13 -14 24 22 14 56 11 73 -7z m143 4 c19 -15 18 -128 -1 -128 -11 0 -16
15 -18 53 -3 44 -6 52 -23 52 -17 0 -20 -8 -23 -52 -2 -38 -7 -53 -18 -53 -11
0 -14 15 -14 68 l0 68 42 1 c23 1 48 -3 55 -9z m121 -5 c2 -8 -6 -13 -22 -13
-33 0 -34 -18 -1 -30 35 -13 36 -67 1 -76 -30 -7 -57 -2 -56 11 0 6 10 10 22
10 31 1 34 23 4 35 -28 10 -35 47 -14 68 16 16 60 12 66 -5z m770 1 c27 -19
30 -78 5 -106 -23 -26 -78 -24 -97 4 -22 31 -20 60 5 92 23 29 54 33 87 10z
m139 4 c7 -6 14 -5 18 2 8 14 48 13 63 -2 7 -7 12 -38 12 -70 0 -45 -3 -58
-15 -58 -11 0 -15 12 -15 50 0 37 -4 52 -16 57 -22 8 -34 -14 -34 -64 0 -31
-4 -43 -14 -43 -11 0 -16 15 -18 53 -2 38 -7 52 -18 52 -11 0 -16 -14 -18 -52
-3 -45 -6 -53 -23 -53 -17 0 -19 7 -19 69 l0 68 43 0 c23 1 47 -4 54 -9z m219
1 c8 -7 14 -6 19 1 9 15 41 12 59 -6 22 -21 23 -124 1 -124 -11 0 -15 11 -15
43 0 50 -12 72 -34 64 -12 -5 -16 -20 -16 -57 0 -38 -4 -50 -15 -50 -11 0 -15
12 -15 50 0 37 -4 52 -16 57 -22 8 -34 -14 -34 -64 0 -32 -4 -43 -15 -43 -12
0 -15 14 -15 69 l0 69 42 0 c23 1 48 -4 54 -9z m218 -11 c30 -42 21 -58 -30
-58 -56 0 -57 -23 -1 -28 51 -4 51 -32 0 -32 -47 0 -73 24 -73 67 0 63 71 98
104 51z m-6579 -458 l18 -40 24 40 c13 22 31 40 39 40 20 0 18 -8 -16 -65 -19
-31 -30 -64 -30 -87 0 -27 -4 -38 -15 -38 -11 0 -15 11 -15 35 0 20 -11 58
-25 85 -28 56 -31 70 -12 70 8 0 22 -18 32 -40z m603 18 c2 -12 -4 -16 -29
-15 -46 3 -46 -18 0 -48 67 -42 49 -105 -30 -105 -30 0 -39 4 -39 18 0 13 8
17 37 17 50 0 52 19 4 50 -45 28 -53 56 -24 87 21 24 76 21 81 -4z m540 -61
l3 -77 34 0 c24 0 35 -5 35 -15 0 -12 -13 -15 -55 -15 l-55 0 0 88 c0 49 3 92
7 96 18 18 28 -7 31 -77z m4002 3 l0 -80 40 0 c29 0 40 -4 40 -15 0 -12 -13
-15 -55 -15 l-55 0 0 95 c0 78 3 95 15 95 12 0 15 -16 15 -80z m616 23 c9 -32
19 -62 23 -66 4 -4 16 20 26 54 17 55 37 81 51 66 4 -3 -8 -47 -26 -96 -43
-119 -56 -120 -93 -8 -31 96 -32 107 -12 107 9 0 20 -21 31 -57z m-4968 35
c-6 -18 -28 -21 -28 -4 0 9 7 16 16 16 9 0 14 -5 12 -12z m4757 3 c7 -12 -12
-24 -25 -16 -11 7 -4 25 10 25 5 0 11 -4 15 -9z m493 -3 c-6 -18 -28 -21 -28
-4 0 9 7 16 16 16 9 0 14 -5 12 -12z m-5038 -13 c0 -8 7 -15 15 -15 8 0 15 -7
15 -15 0 -8 -7 -15 -15 -15 -11 0 -15 -11 -15 -40 0 -29 4 -40 15 -40 8 0 15
-7 15 -16 0 -11 -8 -14 -27 -12 -26 3 -28 7 -31 56 -2 28 -7 52 -13 52 -5 0
-9 7 -9 15 0 8 5 15 10 15 6 0 10 7 10 15 0 8 7 15 15 15 8 0 15 -7 15 -15z
m890 0 c0 -8 7 -15 15 -15 8 0 15 -7 15 -15 0 -8 -7 -15 -15 -15 -11 0 -15
-11 -15 -40 0 -29 4 -40 15 -40 8 0 15 -7 15 -15 0 -17 -45 -21 -55 -5 -14 22
-24 123 -14 141 12 23 39 25 39 4z m4220 0 c0 -9 9 -15 25 -15 16 0 25 6 25
15 0 8 7 15 15 15 8 0 15 -7 15 -15 0 -8 7 -15 15 -15 8 0 15 -7 15 -15 0 -8
-7 -15 -15 -15 -11 0 -15 -11 -15 -40 0 -29 4 -40 15 -40 8 0 15 -7 15 -16 0
-11 -8 -14 -27 -12 -26 3 -28 7 -31 56 -3 48 -5 52 -28 52 -21 0 -24 -4 -24
-40 0 -29 4 -40 15 -40 8 0 15 -7 15 -15 0 -18 -41 -20 -58 -3 -7 7 -12 31
-12 54 0 23 -5 44 -12 46 -7 3 -5 13 7 31 19 29 45 36 45 12z m-5989 -55 c7
-22 15 -40 19 -40 4 0 13 18 20 40 7 22 19 40 27 40 18 0 16 -15 -9 -82 -30
-77 -48 -76 -76 5 -26 73 -26 77 -7 77 8 0 19 -17 26 -40z m182 28 c9 -7 19
-25 23 -40 6 -28 5 -28 -41 -28 -57 0 -58 -23 -2 -28 53 -5 51 -32 -2 -32 -49
0 -71 21 -71 67 0 61 50 93 93 61z m115 -5 c2 -8 -6 -13 -22 -13 -34 0 -33
-11 4 -32 51 -29 34 -78 -27 -78 -24 0 -33 5 -33 16 0 11 6 15 19 11 37 -9 44
9 12 32 -33 24 -39 49 -19 69 16 16 60 12 66 -5z m296 1 c11 -10 16 -34 16
-69 l0 -54 -46 2 c-80 3 -88 58 -13 84 27 9 31 13 17 18 -10 4 -25 5 -33 2
-19 -8 -31 13 -14 24 22 14 56 11 73 -7z m76 -54 c0 -56 -3 -70 -15 -70 -12 0
-15 14 -15 70 0 56 3 70 15 70 12 0 15 -14 15 -70z m137 40 c7 -14 13 -44 13
-67 0 -36 -3 -43 -19 -43 -17 0 -20 8 -23 53 -3 44 -6 52 -23 52 -17 0 -20 -8
-23 -52 -2 -38 -7 -53 -18 -53 -11 0 -14 15 -14 68 l0 69 47 -1 c40 -1 49 -5
60 -26z m381 18 c5 -7 12 -39 14 -71 l3 -58 -50 3 c-50 3 -50 3 -50 38 0 31 4
36 33 45 40 12 42 29 2 23 -29 -4 -51 16 -27 26 24 9 65 6 75 -6z m74 -40 c3
-45 6 -53 23 -53 17 0 21 8 25 50 4 36 9 50 20 50 12 0 16 -15 18 -66 l3 -66
-47 -1 c-26 -1 -54 4 -61 10 -19 15 -18 128 1 128 11 0 16 -15 18 -52z m188
37 c0 -7 -9 -15 -20 -18 -17 -4 -20 -14 -20 -56 0 -44 -3 -51 -20 -51 -18 0
-20 7 -20 63 0 35 2 66 5 68 11 12 75 6 75 -6z m104 -7 c30 -42 21 -58 -30
-58 -56 0 -57 -23 -1 -28 24 -2 37 -8 37 -18 0 -20 -69 -18 -92 3 -27 24 -24
87 4 107 32 22 64 20 82 -6z m133 10 c19 -15 18 -128 -1 -128 -11 0 -16 15
-18 53 -3 44 -6 52 -23 52 -17 0 -20 -8 -23 -52 -2 -38 -7 -53 -18 -53 -11 0
-14 15 -14 68 l0 68 42 1 c23 1 48 -3 55 -9z m3523 -8 c24 -24 26 -77 3 -102
-20 -22 -70 -23 -95 -1 -41 37 -9 123 47 123 14 0 34 -9 45 -20z m72 -32 c3
-45 6 -53 23 -53 17 0 21 8 25 50 4 36 9 50 20 50 12 0 16 -15 18 -66 l3 -66
-50 -1 c-60 -2 -71 11 -71 87 0 38 4 51 14 51 11 0 16 -15 18 -52z m146 -21
c3 -62 1 -67 -18 -67 -18 0 -20 6 -20 63 0 35 3 67 7 71 17 17 28 -6 31 -67z
m100 56 c2 -8 -6 -13 -22 -13 -34 0 -33 -11 4 -32 51 -29 34 -78 -27 -78 -24
0 -33 5 -33 16 0 11 6 15 19 11 37 -9 44 9 12 32 -33 24 -39 49 -19 69 16 16
60 12 66 -5z m250 -41 c3 -43 6 -52 21 -52 23 0 31 19 31 71 0 28 4 39 15 39
12 0 15 -14 15 -69 l0 -68 -50 -2 c-46 -1 -52 2 -60 25 -11 29 -13 97 -3 108
16 16 28 -4 31 -52z m142 -12 c0 -56 -3 -70 -15 -70 -12 0 -15 14 -15 70 0 56
3 70 15 70 12 0 15 -14 15 -70z m298 54 c27 -19 30 -78 5 -106 -23 -26 -78
-24 -97 4 -49 69 24 150 92 102z m145 -2 c23 -20 25 -122 2 -122 -10 0 -15 10
-15 33 0 47 -10 77 -26 77 -19 0 -34 -33 -34 -74 0 -25 -4 -36 -15 -36 -12 0
-15 14 -15 69 l0 68 43 1 c24 0 49 -7 60 -16z"/>
<path d="M3782 9198 l3 -53 43 -3 c51 -4 53 7 10 57 -52 60 -60 60 -56 -1z"/>
<path d="M1761 9674 c0 -11 3 -14 6 -6 3 7 2 16 -1 19 -3 4 -6 -2 -5 -13z"/>
<path d="M1740 9650 c0 -6 -7 -18 -15 -26 -18 -18 -20 -44 -4 -44 6 0 9 -9 6
-20 -3 -11 -1 -18 4 -14 5 3 9 16 9 30 0 18 9 29 35 41 19 9 35 24 35 32 -1
13 -2 13 -11 -1 -9 -17 -12 -17 -34 -2 -17 11 -25 12 -25 4z"/>
<path d="M1858 9633 c5 -21 7 -23 10 -9 2 10 0 22 -6 28 -6 6 -7 0 -4 -19z"/>
<path d="M1804 9604 c3 -8 6 -18 6 -20 0 -3 5 -2 10 1 15 9 12 22 -6 29 -12 5
-15 2 -10 -10z"/>
<path d="M1925 9610 c-3 -5 -1 -10 4 -10 6 0 11 5 11 10 0 6 -2 10 -4 10 -3 0
-8 -4 -11 -10z"/>
<path d="M1785 9580 c3 -5 8 -10 11 -10 2 0 4 5 4 10 0 6 -5 10 -11 10 -5 0
-7 -4 -4 -10z"/>
<path d="M1696 9543 c-6 -14 -5 -15 5 -6 7 7 10 15 7 18 -3 3 -9 -2 -12 -12z"/>
<path d="M1555 9520 c3 -5 12 -7 20 -3 21 7 19 13 -6 13 -11 0 -18 -4 -14 -10z"/>
<path d="M1593 9393 c9 -2 25 -2 35 0 9 3 1 5 -18 5 -19 0 -27 -2 -17 -5z"/>
<path d="M1465 9380 c-3 -5 -2 -10 4 -10 5 0 13 5 16 10 3 6 2 10 -4 10 -5 0
-13 -4 -16 -10z"/>
<path d="M5120 9490 c0 -5 5 -10 11 -10 5 0 7 5 4 10 -3 6 -8 10 -11 10 -2 0
-4 -4 -4 -10z"/>
<path d="M2106 8505 c-11 -8 -28 -15 -38 -15 -10 0 -18 -7 -18 -15 0 -8 5 -15
11 -15 6 0 8 -7 5 -16 -5 -14 -4 -15 9 -4 8 7 12 17 8 24 -3 6 3 3 14 -7 18
-16 21 -16 26 -2 4 9 1 15 -8 15 -19 0 -19 9 2 32 19 22 15 23 -11 3z"/>
<path d="M1530 8530 c0 -5 7 -7 15 -4 8 4 15 8 15 10 0 2 -7 4 -15 4 -8 0 -15
-4 -15 -10z"/>
<path d="M1855 8135 c5 -16 4 -18 -6 -7 -19 18 -24 15 -25 -12 -2 -31 22 -41
36 -15 8 14 8 24 0 37 -10 15 -11 15 -5 -3z"/>
<path d="M1790 8080 c-13 -9 -7 -14 12 -11 4 0 5 -6 2 -14 -7 -18 7 -20 24 -3
8 8 9 15 1 25 -13 15 -19 16 -39 3z"/>
<path d="M2016 8205 c-9 -26 -7 -32 5 -12 6 10 9 21 6 23 -2 3 -7 -2 -11 -11z"/>
<path d="M1890 7859 c0 -11 5 -17 10 -14 6 3 10 13 10 21 0 8 -4 14 -10 14 -5
0 -10 -9 -10 -21z"/>
<path d="M1883 7745 c0 -8 4 -12 9 -9 5 3 6 10 3 15 -9 13 -12 11 -12 -6z"/>
<path d="M2036 6421 c-7 -11 20 -77 35 -86 6 -4 15 -3 21 3 7 7 3 23 -13 51
-23 41 -33 49 -43 32z m54 -71 c0 -5 -4 -10 -10 -10 -5 0 -10 5 -10 10 0 6 5
10 10 10 6 0 10 -4 10 -10z"/>
<path d="M250 2910 l0 -100 34 0 c22 0 45 9 63 24 24 21 28 32 28 76 0 44 -4
55 -28 76 -18 15 -41 24 -63 24 l-34 0 0 -100z"/>
<path d="M4757 2980 c-11 -32 -27 -83 -27 -86 0 -2 14 -4 30 -4 34 0 34 0 16
60 -8 27 -16 39 -19 30z"/>
<path d="M5307 2980 c-11 -32 -27 -83 -27 -86 0 -2 14 -4 30 -4 34 0 34 0 16
60 -8 27 -16 39 -19 30z"/>
<path d="M5570 2965 c0 -41 2 -45 23 -45 26 0 57 28 57 51 0 23 -21 39 -52 39
-27 0 -28 -2 -28 -45z"/>
<path d="M5930 2970 c0 -36 3 -40 24 -40 26 0 56 23 56 44 0 20 -22 36 -52 36
-26 0 -28 -3 -28 -40z"/>
<path d="M743 2853 c-18 -7 -16 -42 2 -49 20 -8 45 13 45 37 0 19 -20 24 -47
12z"/>
<path d="M1227 2922 c-25 -27 -21 -32 23 -32 43 0 49 9 24 34 -20 20 -27 20
-47 -2z"/>
<path d="M6200 2911 c-16 -32 -12 -76 11 -97 39 -35 75 17 57 84 -7 25 -14 32
-33 32 -14 0 -29 -8 -35 -19z"/>
<path d="M710 2460 c-11 -7 -12 -12 -3 -21 13 -13 33 -4 33 17 0 16 -9 18 -30
4z"/>
<path d="M945 2490 c-4 -6 5 -10 19 -10 14 0 26 5 26 10 0 6 -9 10 -19 10 -11
0 -23 -4 -26 -10z"/>
<path d="M1190 2490 c0 -5 9 -10 20 -10 11 0 20 5 20 10 0 6 -9 10 -20 10 -11
0 -20 -4 -20 -10z"/>
<path d="M6250 2460 c-11 -7 -12 -12 -3 -21 13 -13 33 -4 33 17 0 16 -9 18
-30 4z"/>
<path d="M6485 2490 c-4 -6 5 -10 20 -10 15 0 24 4 20 10 -3 6 -12 10 -20 10
-8 0 -17 -4 -20 -10z"/>
<path d="M6730 2490 c0 -5 9 -10 20 -10 11 0 20 5 20 10 0 6 -9 10 -20 10 -11
0 -20 -4 -20 -10z"/>
<path d="M694 2076 c-9 -37 2 -58 28 -54 19 2 23 9 23 38 0 29 -4 36 -22 38
-17 3 -24 -3 -29 -22z"/>
<path d="M350 2120 c0 -25 4 -30 24 -30 28 0 42 26 25 46 -6 8 -20 14 -30 14
-14 0 -19 -7 -19 -30z"/>
<path d="M1450 2085 l0 -65 29 0 c34 0 61 30 61 67 0 30 -34 63 -65 63 -24 0
-25 -2 -25 -65z"/>
<path d="M567 2043 c-13 -12 -7 -23 12 -23 10 0 21 7 25 15 5 15 -24 22 -37 8z"/>
<path d="M837 2043 c-4 -3 -2 -12 4 -20 9 -10 15 -10 25 -2 8 6 14 15 14 20 0
10 -34 12 -43 2z"/>
<path d="M1684 2086 c-3 -8 -4 -25 -2 -38 2 -17 9 -23 28 -23 22 0 25 4 25 35
0 29 -4 36 -23 38 -13 2 -24 -3 -28 -12z"/>
<path d="M5275 2040 c-8 -12 20 -24 35 -15 5 3 10 10 10 16 0 12 -37 12 -45
-1z"/>
<path d="M6301 2078 c-11 -29 4 -58 30 -58 24 0 33 21 25 55 -8 32 -43 34 -55
3z"/>
<path d="M6875 2090 c-4 -6 5 -10 19 -10 14 0 26 5 26 10 0 6 -9 10 -19 10
-11 0 -23 -4 -26 -10z"/>
<path d="M615 1600 c-4 -6 5 -10 19 -10 14 0 26 5 26 10 0 6 -9 10 -19 10 -11
0 -23 -4 -26 -10z"/>
<path d="M1030 1547 c0 -21 12 -28 27 -16 19 16 16 29 -7 29 -11 0 -20 -6 -20
-13z"/>
<path d="M1620 1547 c0 -19 10 -27 26 -20 21 8 17 33 -6 33 -11 0 -20 -6 -20
-13z"/>
<path d="M1975 1600 c-4 -6 5 -10 19 -10 14 0 26 5 26 10 0 6 -9 10 -19 10
-11 0 -23 -4 -26 -10z"/>
<path d="M5630 1595 c-20 -24 -4 -65 25 -65 18 0 26 7 31 25 7 27 -9 55 -31
55 -7 0 -18 -7 -25 -15z"/>
<path d="M6640 1590 c-22 -41 14 -84 45 -54 18 18 19 46 3 62 -18 18 -36 15
-48 -8z"/>
<path d="M5580 10010 c0 -5 9 -10 19 -10 11 0 23 5 26 10 4 6 -5 10 -19 10
-14 0 -26 -4 -26 -10z"/>
</g>
</svg>
